<?xml version="1.0" encoding="utf-8"?>
<!-- Generator: Adobe Illustrator 24.2.1, SVG Export Plug-In . SVG Version: 6.00 Build 0)  -->
<svg version="1.1" id="Capa_1" xmlns="http://www.w3.org/2000/svg" xmlns:xlink="http://www.w3.org/1999/xlink" x="0px" y="0px"
	 viewBox="0 0 100 85" style="enable-background:new 0 0 100 85;" xml:space="preserve">
<style type="text/css">
	.st0{fill:#FFFFFF;}
</style>
<g>
	<path class="st0" d="M75.1,6c5,0,9.8,2,13.4,5.5C92,15.1,94,19.8,94,24.8s-2,9.7-5.5,13.3L50,76.5L11.5,38.1C8,34.6,6,29.8,6,24.8
		s2-9.8,5.5-13.3C15.1,8,19.8,6,24.9,6s9.8,2,13.3,5.5l7.5,7.5l4.2,4.2l4.2-4.2l7.5-7.5C65.3,8,70.1,6,75.1,6 M75.1,0
		c-6.4,0-12.7,2.4-17.6,7.3L50,14.8l-7.5-7.5C37.6,2.4,31.2,0,24.9,0S12.1,2.4,7.3,7.3c-9.7,9.7-9.7,25.4,0,35.1L50,85l42.7-42.6
		c9.7-9.7,9.7-25.4,0-35.1C87.9,2.4,81.5,0,75.1,0L75.1,0z"/>
</g>
</svg>
